<svg xmlns="http://www.w3.org/2000/svg" xml:space="preserve" width="37.3405mm" height="37.3455mm" version="1.1" style="shape-rendering:geometricPrecision; text-rendering:geometricPrecision; image-rendering:optimizeQuality; fill-rule:evenodd; clip-rule:evenodd"
viewBox="0 0 1102 1102">
 <defs>
  <style type="text/css">
   <![CDATA[
    .fil1 {fill:#010101}
    .fil4 {fill:#020202}
    .fil7 {fill:#060606}
    .fil8 {fill:#080808}
    .fil2 {fill:#1D1D1B}
    .fil0 {fill:#BE0002}
    .fil6 {fill:#F8F8F8}
    .fil5 {fill:#FCFCFC}
    .fil3 {fill:white}
   ]]>
  </style>
 </defs>
 <g id="Layer_x0020_1">
  <path class="fil0" d="M506 287c-8,-10 -4,-23 -23,-24 -14,-1 -44,29 -54,39 -49,43 -21,-2 -57,8 -17,4 -33,56 -50,85 -19,1 -42,-17 -44,24 -2,15 -2,65 -7,74 -7,9 -47,-8 -28,45 4,13 21,57 22,67 -19,11 -42,11 -8,52 7,7 41,43 44,50 -6,14 -38,26 15,51 13,6 54,21 61,30 -3,11 -26,39 25,41 94,4 67,-3 75,25 11,38 82,-15 111,-13 4,8 13,49 51,9 7,-6 16,-16 24,-22 8,-7 17,-20 27,-22 11,6 12,18 30,14 15,-4 29,-43 36,-58 5,-10 13,-24 15,-32 10,-1 45,19 46,-21 1,-22 -2,-57 1,-78 10,-4 57,3 38,-39 -5,-13 -26,-58 -26,-66 10,-8 22,-5 25,-22 2,-14 -11,-23 -17,-30l-45 -48c3,-18 38,-26 -13,-54l-62 -30c0,-11 11,-21 1,-34 -13,-19 -98,-4 -102,-18 -6,-17 7,-41 -47,-23 -15,4 -52,19 -64,20z"/>
  <path class="fil1" d="M766 776l54 58c-5,18 -17,30 -13,70 5,43 36,71 63,100 9,10 33,37 41,42 10,-6 16,-17 25,-25 7,2 39,38 44,44 19,20 36,48 51,32 22,-24 -60,-73 -71,-103l42 -46c9,6 35,36 44,46 18,19 36,46 51,31 11,-12 0,-25 -6,-31 -13,-15 -60,-63 -65,-72l24 -27 -78 -85c-55,-49 -94,-20 -119,-13l-54 -57 -33 36z"/>
  <path class="fil2" d="M768 64c6,8 45,47 56,50 15,4 18,-2 27,-5l17 15c-3,8 -12,16 -5,29 4,9 15,14 20,22l-109 95c-10,8 -29,23 -36,33 6,9 49,47 55,51l74 -62c12,-11 24,-21 37,-32 10,-9 28,-27 37,-31 28,22 83,79 92,123 5,-8 10,-36 12,-46 19,-121 -18,-129 -84,-195 -45,-43 -41,-16 -54,-22 -4,-2 -11,-10 -16,-13 7,-29 5,-26 -14,-44 -10,-10 -23,-23 -35,-32 -8,3 -68,56 -74,64z"/>
  <path class="fil1" d="M209 303c-2,32 11,25 30,16 13,-7 26,-13 39,-20 11,-5 34,-12 36,-25 4,-29 -34,-7 -34,-7 0,0 31,-36 -11,-31 -4,-12 -12,-22 -15,-30 -9,-22 6,-51 -42,-102 -35,-38 -92,-35 -125,1 -59,64 -16,154 53,175 32,10 22,-9 69,23z"/>
  <path class="fil1" d="M106 990l-2 49c-17,12 -53,24 -66,36 3,22 48,28 69,25 85,-14 104,-136 32,-181 -50,-31 -108,-4 -128,41 -24,55 8,32 32,19 29,-16 22,-19 63,11z"/>
  <path class="fil1" d="M140 902c4,7 23,17 31,27 9,13 13,23 21,38 8,-3 122,-112 139,-128 25,-23 22,-32 2,-58 -16,-20 -29,-36 -55,-9 -22,22 -129,117 -138,130z"/>
  <path class="fil3" d="M536 497c-19,6 -31,9 -43,25 -38,49 0,121 71,111 12,-2 33,-14 43,-27 23,-31 16,-75 -16,-98 -13,-10 -40,-16 -55,-11z"/>
  <path class="fil4" d="M302 323l-1 12c-10,3 -28,7 -37,11 -16,7 -11,22 1,30 12,1 29,-6 41,-9 18,-5 20,-11 24,-30 15,-71 7,-62 -63,-27 -10,5 -30,11 -31,23 -2,34 66,-10 66,-10z"/>
  <path class="fil5" d="M891 942c12,-9 18,-21 29,-27l12 47c7,-3 20,-19 24,-26l-21 -84c-14,7 -17,22 -31,28 -5,-9 -19,-37 -26,-42 1,18 7,96 13,104z"/>
  <path class="fil6" d="M280 811c-15,12 -1,31 13,23 14,-8 3,-35 -13,-23z"/>
  <path class="fil6" d="M123 103c11,6 9,-8 39,-1 16,3 11,0 13,-1 -6,-16 -49,-14 -52,2z"/>
  <path class="fil7" d="M117 53c2,-3 4,-2 2,-12 -4,-22 -6,-27 -15,-26 -2,7 1,12 3,20 2,11 1,15 10,18z"/>
  <path class="fil8" d="M0 221c9,2 13,-1 22,-3 11,-3 14,-1 13,-12 -9,-2 -13,1 -21,3 -11,3 -14,1 -14,12z"/>
  <path class="fil7" d="M1 131c2,10 3,7 15,10 3,1 7,2 10,3 3,1 8,2 10,-1 3,-9 -3,-8 -12,-11l-16 -4c-11,1 -3,0 -7,3z"/>
  <path class="fil7" d="M65 86c3,-13 -20,-30 -27,-31 -2,14 19,31 27,31z"/>
  <path class="fil7" d="M176 49c10,0 8,-4 10,-15 2,-9 6,-16 2,-24 -10,1 -7,4 -10,15 -2,10 -4,14 -2,24z"/>
  <path class="fil8" d="M223 72c9,3 8,0 14,-6 5,-6 7,-6 7,-17 -10,2 -21,15 -21,23z"/>
 </g>
</svg>
