
<svg xmlns="http://www.w3.org/2000/svg" xml:space="preserve" width="88.7527mm" height="81.7965mm" version="1.1" style="shape-rendering:geometricPrecision; text-rendering:geometricPrecision; image-rendering:optimizeQuality; fill-rule:evenodd; clip-rule:evenodd"
viewBox="0 0 93692 86348"
 >
 <defs>
  <style type="text/css">
   <![CDATA[
    .fil1 {fill:#C00000}
    .fil2 {fill:#010101}
    .fil5 {fill:#020202}
    .fil8 {fill:#060606}
    .fil9 {fill:#080808}
    .fil0 {fill:#130304}
    .fil3 {fill:#1D1D1B}
    .fil7 {fill:#F8F8F8}
    .fil6 {fill:#FCFCFC}
    .fil4 {fill:#FDFDFD}
   ]]>
  </style>
 </defs>
 <g id="Layer_x0020_1">
  <metadata id="CorelCorpID_0Corel-Layer"/>
  <path class="fil0" d="M43080 22499c-750,-809 -401,-1834 -2007,-1894 -1192,-45 -3719,2284 -4624,3040 -4100,3424 -1724,-113 -4804,619 -1487,354 -2843,4394 -4254,6667 -1652,105 -3538,-1317 -3781,1891 -92,1214 -136,5097 -517,5850 -669,688 -4040,-678 -2446,3485 380,993 1806,4472 1852,5226 -1594,890 -3541,880 -608,4079 566,618 3497,3412 3730,3921 -523,1139 -3263,2055 1286,3992 1109,472 4526,1687 5128,2375 -234,855 -2170,3049 2125,3210 7990,298 5749,-189 6420,2008 893,2923 6941,-1236 9414,-1021 373,603 1084,3837 4358,710 564,-539 1364,-1267 2028,-1794 681,-540 1500,-1527 2347,-1719 931,517 1006,1413 2492,1112 1281,-259 2516,-3342 3121,-4544 373,-741 1033,-1875 1274,-2518 785,-18 3801,1485 3902,-1617 58,-1760 -212,-4466 64,-6085 812,-376 4830,195 3251,-3118 -462,-968 -2267,-4530 -2260,-5183 877,-618 1924,-384 2129,-1678 180,-1138 -881,-1794 -1414,-2328l-3872 -3817c321,-1357 3253,-2037 -1063,-4173l-5259 -2377c19,-907 878,-1663 106,-2659 -1138,-1469 -8351,-327 -8736,-1419 -475,-1351 636,-3187 -4017,-1844 -1277,369 -4363,1551 -5365,1603z"/>
  <path class="fil1" d="M41079 21757c-1526,497 -5249,4340 -6277,4598 -2604,652 -1973,-3041 -4102,995 -1734,3288 -1794,4873 -3992,4747 -558,-32 -1530,-389 -1574,84l-494 5197c-33,1252 94,2003 -1086,2482 -599,244 -1307,198 -1919,272 -212,1992 2670,6305 2066,7791 -511,639 -1179,782 -1936,1059 129,931 2435,2991 3379,3964 705,727 2484,1987 1421,3376 -339,442 -545,256 -758,1062 1007,1077 6920,2662 7414,3821 284,2067 -325,1210 -470,2331 1443,667 7204,40 8394,884 844,598 588,1138 749,2345 1771,384 6528,-2337 8269,-2065 1120,175 1201,1250 1622,1969 639,-44 299,61 754,-189 774,-425 4931,-4354 5506,-4498 1355,-338 1863,442 2501,1138 1509,-254 2994,-5806 4239,-6785 906,-713 2284,43 3350,-76 196,-8949 -740,-7647 3476,-8193 496,-2392 -3001,-5464 -2251,-7327 397,-987 1343,-733 2064,-1367 -316,-1228 -5031,-4897 -5212,-5459 -366,-2134 860,-1545 1033,-2729 -916,-1163 -6508,-2769 -7143,-3564 -1888,-2368 4134,-3055 -6108,-3211 -4620,-71 -1800,-2850 -3607,-2847 -1243,2 -6167,2498 -7816,1971 -709,-226 -787,-893 -1492,-1776z"/>
  <path class="fil2" d="M65195 60793l4535 4559c-396,1448 -1452,2355 -1091,5477 390,3375 3102,5610 5358,7855 794,790 2821,2943 3470,3301 884,-453 1400,-1368 2183,-1989 575,220 3244,3022 3732,3495 1609,1558 3046,3737 4304,2485 1860,-1850 -5116,-5749 -6051,-8033l3617 -3661c766,456 2960,2819 3742,3597 1500,1489 3073,3667 4303,2437 923,-923 3,-1960 -484,-2438 -1134,-1112 -5122,-4906 -5514,-5575l1982 -2139 -6647 -6674c-4645,-3832 -7918,-1561 -10080,-1017l-4606 -4450 -2753 2770z"/>
  <path class="fil3" d="M65314 4985c534,659 3871,3712 4756,3943 1257,329 1527,-173 2302,-424l1447 1199c-226,679 -1028,1242 -445,2272 402,712 1287,1134 1701,1743l-9249 7467c-822,619 -2428,1813 -3059,2540 530,715 4134,3733 4693,4060l6259 -4899c1084,-863 2084,-1640 3136,-2501 876,-718 2430,-2096 3159,-2440 2440,1729 7090,6164 7810,9675 479,-646 910,-2871 1041,-3620 1656,-9514 -1495,-10148 -7139,-15268 -3779,-3429 -3511,-1252 -4620,-1762 -334,-153 -898,-752 -1348,-1007 594,-2299 477,-2035 -1124,-3420 -923,-799 -2006,-1840 -2989,-2543 -664,213 -5806,4398 -6331,4985z"/>
  <path class="fil2" d="M17755 23725c-154,2498 988,1962 2555,1242 1108,-510 2192,-1005 3374,-1548 859,-396 2876,-958 3015,-1907 341,-2339 -2870,-561 -2884,-556 1,-2 2629,-2822 -933,-2485 -326,-892 -1020,-1676 -1305,-2351 -718,-1703 548,-3932 -3512,-7953 -3026,-2996 -7884,-2782 -10698,40 -5012,5025 -1287,12111 4565,13735 2738,759 1814,-663 5823,1783z"/>
  <path class="fil2" d="M8977 77579l-144 3823c-1430,974 -4467,1886 -5562,2881 247,1706 4081,2190 5854,1929 7248,-1069 8822,-10630 2713,-14142 -4309,-2476 -9162,-354 -10889,3215 -2080,4295 667,2482 2707,1438 2434,-1247 1895,-1481 5321,856z"/>
  <path class="fil2" d="M11879 70666c379,558 1946,1332 2645,2175 798,964 1113,1809 1811,2977 690,-232 10366,-8792 11846,-10043 2111,-1786 1830,-2544 123,-4531 -1342,-1561 -2409,-2841 -4685,-760 -1883,1721 -10903,9176 -11740,10182z"/>
  <path class="fil0" d="M45584 38931c-1612,471 -2589,737 -3665,2015 -3220,3827 -12,9446 6087,8672 1009,-128 2779,-1085 3606,-2085 2013,-2435 1367,-5892 -1314,-7731 -1109,-760 -3460,-1238 -4714,-871z"/>
  <path class="fil4" d="M45718 40110c-6499,1591 -3815,9629 2224,8328 2092,-451 4165,-2620 3387,-5314 -570,-1976 -3019,-3648 -5611,-3014z"/>
  <path class="fil5" d="M25688 25297l-89 970c-881,211 -2349,539 -3146,849 -1334,519 -953,1711 68,2322 1064,84 2459,-443 3538,-710 1517,-376 1673,-789 2033,-2339 1286,-5523 576,-4854 -5368,-2091 -865,402 -2540,848 -2611,1803 -198,2681 5574,-803 5575,-804z"/>
  <path class="fil6" d="M75829 73873c963,-718 1494,-1671 2414,-2168l991 3718c601,-277 1772,-1495 2091,-2028l-1797 -6619c-1158,535 -1442,1768 -2607,2205 -493,-707 -1633,-2906 -2252,-3309 77,1429 626,7524 1160,8201z"/>
  <path class="fil7" d="M23832 63592c-1281,910 -84,2388 1054,1801 1224,-631 270,-2741 -1054,-1801z"/>
  <path class="fil7" d="M10446 8078c940,434 792,-616 3291,-106 1419,289 985,43 1154,-76 -488,-1228 -4139,-1071 -4445,182z"/>
  <path class="fil8" d="M9967 4129c123,-203 283,-163 136,-883 -358,-1761 -490,-2121 -1228,-2086 -210,557 39,978 209,1604 218,806 115,1186 883,1365z"/>
  <path class="fil9" d="M2 17333c802,164 1082,-58 1866,-265 928,-247 1169,-47 1129,-944 -746,-122 -1155,89 -1814,265 -954,254 -1207,90 -1181,944z"/>
  <path class="fil8" d="M90 10261c147,805 235,540 1273,796 266,65 559,180 871,241 270,52 681,112 859,-107 220,-704 -250,-623 -1060,-817l-1358 -331c-953,30 -272,8 -585,218z"/>
  <path class="fil8" d="M5550 6746c239,-1035 -1718,-2391 -2279,-2441 -215,1085 1556,2420 2279,2441z"/>
  <path class="fil8" d="M14943 3819c843,25 699,-316 910,-1166 177,-718 483,-1261 118,-1867 -798,104 -605,294 -813,1194 -181,790 -372,1049 -215,1839z"/>
  <path class="fil9" d="M18985 5622c764,232 677,9 1149,-475 423,-433 646,-447 602,-1297 -870,153 -1777,1128 -1751,1772z"/>
 </g>
</svg>
