<?xml version="1.0" encoding="UTF-8"?>
<!DOCTYPE svg PUBLIC "-//W3C//DTD SVG 1.1//EN" "http://www.w3.org/Graphics/SVG/1.1/DTD/svg11.dtd">
<!-- Creator: CorelDRAW Home & Student 2014 -->
<svg xmlns="http://www.w3.org/2000/svg" xml:space="preserve" width="50mm" height="50.2882mm" version="1.1" style="shape-rendering:geometricPrecision; text-rendering:geometricPrecision; image-rendering:optimizeQuality; fill-rule:evenodd; clip-rule:evenodd"
viewBox="0 0 6831 6870"
 xmlns:xlink="http://www.w3.org/1999/xlink">
 <defs>
  <style type="text/css">
   <![CDATA[
    .fil0 {fill:#333333}
   ]]>
  </style>
 </defs>
 <g id="Layer_x0020_1">
  <metadata id="CorelCorpID_0Corel-Layer"/>
  <g id="_477901616">
   <path class="fil0" d="M2175 378l29 0 0 38c-42,20 -139,35 -193,51 -33,9 -63,18 -93,27 -13,4 -84,35 -86,-9 7,-20 -8,-7 19,-20 -3,-16 -73,-78 -87,-92 -1,-1 -4,-4 -5,-5l-42 -41c-6,-6 -11,-12 -16,-17l-126 -121c-17,4 -116,64 -137,77 -23,14 -45,24 -68,38l-348 200 102 381c17,-11 5,-7 29,-13 0,24 -2,15 5,20 -1,58 -42,55 -64,86 -21,27 -128,125 -139,142 -16,23 -16,19 -36,37 -21,18 -22,12 -56,10 3,-20 12,-23 22,-43 -131,-35 -245,-70 -381,-102l-315 553 137 139c24,24 44,44 68,68 19,19 50,58 71,67 3,-6 1,-4 5,-8l10 -10 26 17c1,0 2,2 3,2 0,-1 2,1 3,1 -5,41 -39,141 -52,182 -14,45 -26,151 -48,182l-37 2 4 -37 -189 50c-24,6 -168,47 -190,47l0 645c35,2 140,36 186,46 33,7 62,14 93,23 26,8 72,22 99,23l0 9 0 -29c15,2 15,2 26,5l17 5c18,48 26,119 42,173 14,47 41,121 49,166 -1,1 -3,2 -3,3 -1,1 -2,2 -3,3l-8 8c-9,7 -5,5 -18,10 -2,-1 -3,-2 -4,-3l-11 -14 -84 83c-1,1 -2,2 -3,3 0,0 -1,1 -2,2l-118 115c-20,20 -55,50 -69,71l157 274c28,47 50,89 78,135l80 139c35,0 276,-72 329,-88 14,-5 36,-8 50,-14 -12,-13 -17,-24 -24,-39 29,-2 37,-13 56,5l36 37c44,59 28,23 69,72 24,29 46,40 69,71 23,33 27,11 74,72l-14 30c0,1 -2,5 -3,4 0,-1 -2,2 -3,3 -14,-6 -8,-2 -19,-12 0,26 -94,347 -102,382 19,5 506,290 553,315l274 -276 -34 -18c8,-18 14,-18 24,-31 48,6 133,35 179,49 62,19 132,25 186,48l0 39 -29 0c15,8 36,110 42,133 5,20 7,32 12,50 9,31 15,65 24,97 7,22 23,74 24,98l644 0c4,-41 92,-343 92,-377l-47 2c37,-54 -45,-29 173,-78 52,-12 160,-55 209,-56 10,16 11,9 19,29 -1,1 -3,2 -3,4 -1,2 -5,5 -6,6 -5,4 2,0 -9,5 28,22 103,102 136,139 25,28 113,120 139,137 47,-25 90,-51 136,-77 46,-27 91,-52 138,-80l278 -158c-2,-20 -8,-27 -12,-46 -9,-34 -85,-324 -95,-332l-34 20c-3,-30 -23,-35 27,-81 13,-13 15,-7 35,-28l25 -28c13,-14 27,-23 41,-37 14,-14 22,-27 36,-41 11,-11 30,-24 40,-37 7,-9 8,-14 17,-22 48,-45 31,-34 84,-32 -7,15 -16,25 -24,39l91 26c16,5 30,8 45,13 15,5 34,9 49,14 35,10 158,49 193,49 24,-46 52,-91 79,-135l236 -413 -276 -273 -19 36 -20 -15c-11,-12 -9,-5 -9,-23 1,-9 12,-48 14,-53 33,-99 59,-209 84,-311l40 -3 -5 41c26,-9 62,-18 93,-26l236 -64c15,-5 35,-10 51,-11l0 -645c-27,-2 -73,-16 -97,-23 -33,-10 -62,-17 -95,-26 -31,-9 -63,-16 -96,-26 -20,-5 -81,-17 -90,-27l0 29c-60,0 -43,-13 -58,-69 -7,-29 -13,-64 -22,-94 -17,-58 -38,-120 -53,-180 1,-2 2,-3 3,-4 1,0 2,-2 3,-3 7,-9 5,-12 17,-15 24,-6 15,-6 23,12l278 -275 -158 -276c-14,-24 -25,-44 -40,-67 -15,-25 -25,-47 -40,-71l-79 -140c-33,8 -63,16 -96,25l-286 77c8,16 13,14 20,34 -1,1 -3,1 -4,2 -6,3 -25,18 -51,-6 -33,-29 -9,-1 -38,-40l-117 -115c-16,-15 -20,-28 -37,-40 -63,-45 -56,-56 -54,-96 23,4 25,15 43,23 10,-19 19,-68 27,-94 9,-34 15,-62 25,-96l50 -192c-94,-50 -186,-110 -274,-157 -50,-26 -254,-152 -278,-158l-276 276c31,15 13,4 16,15 11,42 -43,28 -65,20 -71,-24 -298,-76 -315,-88l-2 -36 41 3c-10,-23 -19,-63 -26,-91 -12,-49 -74,-262 -76,-288l-644 0 -24 97c-6,23 -68,272 -78,281z"/>
   <path class="fil0" d="M982 1691c-17,3 10,-9 -7,-5 -6,19 -16,27 -26,43 -12,21 -5,33 -17,52l-27 54c-14,23 -20,46 -32,70l-17 41c-6,14 -1,1 -6,14l-21 66c-8,22 -8,33 -18,55 -8,19 -8,32 -14,54 -11,38 -13,79 -22,113 -4,12 -6,16 -8,26 -2,10 -3,24 -4,34 -4,24 -10,37 -11,57 -3,29 1,40 -6,67 -6,19 -4,41 -5,63 -1,96 -6,73 -1,175l14 161c1,9 1,18 3,27l45 216c10,26 6,34 19,68l38 107c3,10 5,17 7,23 1,5 1,6 3,11l22 51c2,5 6,14 8,20 1,1 1,3 2,4l22 55c6,17 14,19 23,35l55 100c0,1 1,3 2,3l75 114c17,19 10,17 21,38l76 92c21,28 45,59 70,81 29,25 37,47 72,69 14,8 19,15 30,28l321 236c1,1 2,2 3,2 29,18 58,29 86,50l79 36c7,2 13,4 19,6l61 27c10,3 11,4 20,8l120 41c8,3 -2,-1 10,4 8,3 14,4 22,6 103,23 128,46 290,59 76,6 144,14 224,14 54,0 210,0 245,-13 -17,-1 -44,1 -55,-5 44,1 99,1 141,-9 13,-3 13,-2 27,-3 23,-2 26,-7 51,-12 17,-4 30,-7 47,-10 45,-10 115,-26 152,-52 1,0 2,-1 3,-2 26,-19 80,-27 113,-41 16,-7 30,-15 43,-21l62 -25c18,-10 18,-19 38,-25 11,-3 11,-1 22,-7 12,-6 1,-4 17,-12 8,-3 19,-6 27,-7l-21 -4c36,-12 31,-14 46,-23l33 -11 -20 -5c38,-6 26,-10 47,-26l39 -20c1,-1 2,-1 2,-2 1,-1 2,-2 3,-2l73 -54c0,-1 1,-2 2,-2l60 -51c28,-25 57,-46 81,-75 19,-23 44,-33 61,-55 10,-12 6,-10 18,-21 13,-12 24,-25 37,-40 9,-10 9,-11 17,-22l114 -148c1,-1 3,-4 4,-6 24,-37 40,-75 66,-108l21 -37c7,-11 -1,1 9,-10l28 -50c16,-32 14,-54 43,-92 13,-18 10,-40 26,-72l18 -40c8,-14 10,-38 19,-58l19 -59c4,-14 5,-31 13,-44 1,-1 2,-2 2,-2 15,-21 10,-34 16,-69l37 -195 3 -143c12,-83 8,-181 0,-263 -2,-24 -8,-60 -13,-83l-15 -83c-4,-54 -38,-173 -56,-235 -5,-17 -12,-21 -19,-33l-11 -38c-8,8 -2,0 -7,8 -5,8 -2,2 0,3 -3,-27 -6,-28 -13,-48 -2,-8 -4,-17 -7,-23l-15 -33c-34,-86 -5,-46 -47,-104l-211 -322c-1,-1 -2,-2 -2,-2l-195 -203c-4,-5 -1,-3 -7,-8 -1,0 -2,-1 -3,-2l-22 -16c-12,-9 -19,-19 -30,-28l-134 -99c-8,-5 -1,0 -9,-6l-5 -4c-20,-14 -31,-28 -57,-35l-30 -14c-3,-2 -4,-3 -8,-6 -11,-7 -9,-5 -20,-10 -23,-12 -36,-25 -66,-29l1 -3c0,0 0,-2 0,-2 0,0 0,-2 -1,-2l-78 -47c-19,-14 -76,-34 -101,-35 0,-1 0,-2 0,-2l-29 -8c-2,-9 7,0 5,-8 -21,-5 -20,-13 -40,-18 -18,-5 -31,-6 -47,-11l0 -8c-47,-10 -75,-28 -131,-31 -41,-1 -122,-6 -150,-16 -28,-10 -27,-13 -63,-14 -29,0 -48,-7 -73,-9 -104,-8 -208,-3 -315,5 -46,3 -96,12 -141,18 -127,18 -252,59 -372,103l-197 98c-4,2 -12,7 -15,9 -67,30 -138,73 -196,120 -15,12 -30,19 -45,32 -12,11 -7,9 -20,18 -4,2 -12,7 -12,8l-99 85c-28,29 -49,52 -78,82l-147 173c-1,0 -2,1 -2,2 -1,1 -2,2 -3,3 0,1 -1,2 -2,2l-87 136c-14,21 -25,30 -29,55z"/>
   <path class="fil0" d="M2380 786c4,14 -4,3 9,9 5,2 13,1 16,2l-95 10c-51,16 -121,7 -183,31 -25,10 -68,11 -94,23 -21,11 -52,12 -74,24 -57,29 -145,57 -192,87 -26,17 -54,22 -73,46 -7,9 -6,3 -37,24l-128 85c-5,5 -7,7 -13,11l-243 217c-54,53 -101,115 -146,174 -15,20 -35,35 -49,57 -28,45 -55,85 -79,134 -6,11 -13,25 -18,36l-67 136c-1,1 -1,3 -2,4 0,0 -1,2 -1,3l-66 201c-9,32 -15,47 -22,84 -2,14 -5,30 -9,44 -13,45 -24,81 -27,131 -9,156 -21,313 2,468 4,31 4,62 9,93 2,15 7,23 10,42 3,16 4,32 7,49l5 19c1,1 2,3 4,9 7,25 3,18 12,40 15,36 10,53 39,116 22,49 32,106 56,152l71 143c21,29 32,72 58,96 50,46 36,44 80,100l130 156c49,54 105,106 163,152 28,22 53,50 84,70 35,24 60,50 73,58 1,0 2,1 3,2l399 197c27,9 51,13 79,23 96,31 114,29 210,51 5,1 13,3 20,5 30,8 61,4 91,10 44,8 64,12 122,13 45,0 266,0 302,-9l338 -78c27,-11 60,-16 89,-28l16 -9c1,0 4,-2 4,-2l111 -46c14,-6 20,-9 33,-15 1,-1 5,-3 7,-4 5,-2 4,-2 10,-4l125 -73c26,-19 60,-31 87,-49l227 -190c25,-23 56,-48 78,-76 5,-5 6,-7 11,-13l84 -100c21,-25 42,-48 59,-76l95 -148c16,-23 19,-44 31,-61 7,-11 13,-16 18,-29l76 -188c14,-22 23,-53 25,-81 5,-1 15,-1 7,5 2,-21 3,-19 7,-34 8,-27 11,-52 22,-80l3 -7c14,-30 35,-219 41,-263 11,-91 2,-267 -4,-357l-22 -166c-10,-51 -19,-104 -36,-153 -13,-36 -42,-111 -45,-146 0,0 9,-4 0,3 -8,6 3,5 -7,2l-124 -263c-36,-62 -78,-115 -116,-175 -33,-53 -80,-99 -121,-145 -42,-48 -88,-90 -133,-133 -6,-6 -7,-7 -13,-11 -1,-1 -2,-2 -3,-2 -1,-1 -2,-2 -3,-2l-58 -53c-13,-12 -15,-9 -29,-21l-44 -41c-6,-3 -8,-3 -16,-9l-25 -19c-16,-11 -28,-25 -47,-34l-106 -60c-12,-8 -23,-7 -38,-16 -31,-18 -50,-18 -86,-34 -13,-6 -23,-7 -35,-14l-182 -60c-68,-19 -100,-35 -193,-49l-173 -22c-60,-1 -122,-6 -188,-6 -70,1 -128,7 -193,7z"/>
   <path class="fil0" d="M1213 1749c-1,21 0,43 -13,62l-6 8c-1,1 -6,12 -6,13l-57 132c-7,23 -10,34 -19,54l-38 112c-10,45 -17,5 -18,60 -31,29 -17,20 -28,64 -6,27 -4,60 -13,78 -16,33 -3,85 -12,118 -16,57 -5,159 -6,219l-2 73c0,15 -1,11 2,26l5 29c0,1 0,2 0,3 3,19 -1,35 4,51 11,41 7,78 21,120 0,1 1,2 1,3l10 59c12,4 38,7 39,40 0,10 -1,26 -1,38 19,11 15,-6 22,16 6,24 -9,5 2,29l3 22c0,11 -3,18 2,26 10,17 -1,-3 7,9l58 113c18,40 38,81 63,116l75 110c0,1 1,2 2,3l6 8c0,0 1,1 2,2 0,0 1,2 1,2 0,1 1,2 1,2l202 228c10,8 12,4 20,15 5,7 3,6 8,11l143 113c12,9 -1,2 10,2l99 54c1,0 9,6 9,6l11 8c13,10 30,12 45,23 13,11 10,9 26,17l79 33c14,6 15,9 29,15 9,4 25,7 28,8 9,4 40,29 86,36 12,2 13,-3 33,2l141 34c18,5 45,6 61,10 28,6 31,10 63,11 43,1 71,10 110,8 22,-1 65,6 95,4 20,-2 12,0 28,1l25 0c36,2 42,-7 79,-10 20,-2 45,-1 64,-3 24,-3 8,-4 26,-8l43 -5c26,-7 71,-11 93,-19 15,-6 0,-7 23,-11 8,-1 25,-1 34,-1 18,-2 -5,-3 18,-10l80 -22c0,-1 1,-1 2,-2l192 -84c37,-18 104,-52 132,-72l185 -135c9,-6 4,-2 13,-11l119 -118c39,-35 -1,-7 49,-53l62 -78c20,-24 47,-59 60,-86l24 -38c13,-15 32,-44 37,-62 0,-1 1,-2 1,-3 0,0 0,-2 0,-3 1,0 1,-2 1,-2 0,-1 1,-3 1,-3l47 -88c21,-36 12,-30 28,-64l81 -242c3,-14 3,-18 7,-33l21 -65c8,-16 -2,-6 3,-31l11 -30c10,-32 2,-54 2,-93 24,-19 6,-1 12,-75l-3 -56c0,-29 5,-48 -1,-76 -3,-15 -1,-4 -3,-11 -1,-1 -1,-2 -2,-3l-2 -7c-1,-1 -1,-3 -1,-4 -16,-56 -6,-101 -21,-154l-13 -69c-8,-24 -10,-19 -10,-54l-9 0c0,-35 -10,-31 -14,-54 -4,-25 -3,-38 -8,-55 -2,-9 -3,-9 -7,-21 -1,-1 -4,-11 -4,-11l-21 -57c-7,-21 -11,-31 -18,-49l-64 -130c-6,-9 -6,-10 -12,-22 -8,-17 -17,-44 -27,-55 -15,-17 -32,-24 -46,-41 -4,-6 -9,-15 -13,-22 0,0 -1,-2 -1,-3 -20,-34 -26,-46 -54,-77l-45 -56c-14,-13 -22,-23 -25,-48 -30,-2 -38,-21 -58,-39 -6,-6 -5,-5 -12,-12 -14,-14 -26,-22 -27,-46l-20 -4c-20,-8 -37,-30 -53,-44 0,-1 -2,-2 -2,-2l-114 -91c-1,0 -2,-1 -2,-2 -1,-1 -2,-1 -3,-2l-154 -82c-6,-4 -6,-3 -10,-5l-8 -3c-1,0 -3,-1 -3,-1l-55 -27c-49,-23 -102,-50 -156,-63l-137 -42c-30,-7 -105,-25 -130,-25 14,-10 38,-3 53,-9 -37,-18 -181,-32 -228,-30 -48,2 -117,-4 -152,7l-186 19c-19,0 -85,6 -97,13 -15,7 11,8 -34,10 -10,1 -54,14 -98,18l-19 1c0,0 -1,1 -2,1 -18,6 5,7 -20,19 -39,19 -83,28 -135,55 -60,31 -95,42 -152,79 -4,3 -12,8 -16,9l-39 24c-1,0 -2,1 -3,2l-78 52c-11,8 -2,1 -11,9l-45 32c-1,1 -3,1 -4,2 -1,1 -2,1 -3,2 -13,8 -17,18 -29,28 -1,1 -2,2 -3,2l-54 54c-1,0 -8,6 -11,7l-50 45c0,1 -1,1 -2,2l-84 98c-4,4 -5,6 -9,10 -1,1 -1,2 -2,3 -1,1 -2,2 -2,3l-100 137c0,1 -1,3 -1,4 -17,30 -14,13 -24,18z"/>
   <path class="fil0" d="M5033 4266c-45,8 -101,30 -146,49 -47,20 -91,47 -131,64 -16,19 -30,7 -47,-3l-298 -175c-6,9 -48,48 -62,62 -22,22 -41,40 -63,62 -23,23 -42,43 -65,66 -14,14 -48,52 -60,60l153 257c30,50 51,70 26,88 -30,64 -106,201 -112,279 -7,21 -18,19 -42,25l-142 36c-35,10 -171,40 -188,52l0 350c15,10 151,41 183,49 50,12 144,32 186,48l1 15c14,74 78,224 115,278 4,5 3,1 7,10 4,12 3,15 -10,37l-152 255c-8,13 -20,32 -24,44 4,2 241,233 247,250l256 -149c55,-32 69,-56 97,-29 26,28 220,106 271,112l19 1 93 372 354 0c13,-25 57,-224 74,-283 4,-16 7,-29 11,-46 1,-5 5,-19 6,-23 9,-23 -3,-13 20,-20 55,-1 231,-86 276,-111 5,-6 1,-3 11,-12 27,4 65,32 89,46l249 143 251 -250 -149 -258c-8,-13 -44,-64 -38,-80 7,-22 0,-4 10,-13 47,-88 79,-160 110,-268 1,-28 29,-23 86,-39l286 -77 0 -356 -286 -75c-21,-5 -87,-13 -85,-39 -29,-101 -64,-188 -112,-270 -11,-10 -2,14 -9,-14 -3,-14 -1,-7 2,-15 4,-13 181,-305 184,-323 -17,-6 -248,-243 -250,-247l-295 170c-15,9 -36,24 -46,9 -15,-4 -50,-25 -67,-33 -20,-11 -44,-22 -66,-31 -44,-19 -101,-39 -146,-49 -24,-6 -19,-18 -25,-42l-91 -330 -350 0c-8,12 -68,238 -80,283 -6,23 -11,81 -36,88z"/>
   <path class="fil0" d="M2506 1443c-20,3 -45,3 -65,6 -68,10 -111,19 -178,39 -204,60 -400,189 -532,341 -164,190 -326,498 -289,868 34,344 196,605 386,770 227,197 542,324 868,290 346,-37 606,-195 771,-387 180,-210 314,-478 288,-865 -31,-467 -354,-844 -747,-992 -130,-49 -336,-93 -502,-70z"/>
   <path class="fil0" d="M2521 1510c-177,4 -372,84 -511,171 -30,20 -52,36 -79,56l-75 61c-15,13 -17,24 -31,36 -63,54 -108,122 -154,191 -121,183 -175,433 -161,655 15,225 100,418 227,588l61 75c13,15 23,16 36,31l91 84c414,317 953,312 1362,-11l56 -46c14,-13 17,-23 31,-36l68 -72c277,-337 330,-811 126,-1197 -28,-52 -97,-162 -137,-202 -13,-13 -19,-24 -30,-38l-227 -185c-53,-35 -120,-64 -184,-91 -145,-62 -310,-73 -469,-70z"/>
   <path class="fil0" d="M1531 2478l-1 35c13,-6 3,-1 12,-6l23 -21c1,-1 2,-2 3,-2 0,-1 1,-2 2,-3 1,-1 2,-2 2,-3l38 -33c-4,175 -8,253 37,412 9,32 15,35 21,56 6,24 11,34 24,55 15,24 9,29 18,53 38,100 161,241 230,306 286,272 793,329 1139,124 89,-53 186,-123 252,-202 72,-86 130,-175 175,-282 122,-291 83,-643 -90,-909l-25 -45 -104 -115c-4,-5 -5,-6 -10,-11 -13,-13 -26,-22 -41,-36 -30,-26 -59,-51 -89,-68 -8,-4 -16,-7 -24,-14 -40,-32 -29,-11 -52,-29l-22 -14c-14,-8 -7,-8 -26,-13 -21,-7 -11,-1 -29,-9l-28 -15c-48,-30 -91,-33 -112,-40l-86 -28c-67,-14 -84,-8 -141,-16l-57 -13c18,-12 58,-45 68,-66l-106 1c-135,-18 -423,95 -544,185 -24,17 -47,33 -70,51 -102,85 -215,212 -275,340 -13,27 -28,53 -39,82 -29,74 -76,219 -73,293z"/>
   <path class="fil0" d="M2513 1664c-168,23 -209,30 -360,106 -197,100 -360,296 -437,502 -48,129 -63,263 -53,412 35,516 512,901 1025,852 846,-79 1129,-1136 532,-1644 -108,-92 -172,-127 -299,-174 -108,-40 -262,-75 -408,-54z"/>
   <path class="fil0" d="M5257 4492c-27,5 -56,1 -95,12 -65,16 -108,21 -170,48 -78,35 -147,85 -215,138 -31,24 -60,52 -93,73 -46,29 -76,102 -113,147 -14,16 -39,75 -54,101 -1,1 -1,2 -2,3l-12 30c-9,29 -22,50 -28,79 -12,62 -25,128 -27,192 0,36 0,75 1,112 0,37 3,17 10,41 2,9 5,39 6,47l11 73c2,11 2,16 4,26l42 81c18,39 30,82 55,116 3,4 8,12 11,18 25,46 109,157 149,180 37,23 70,59 109,80 30,16 53,38 86,50 10,4 10,3 17,7l59 29c120,43 221,60 384,53 79,-3 165,-23 232,-51 1,0 2,-1 3,-1l239 -135c0,-1 1,-2 2,-2 3,-3 5,-4 8,-7l169 -185c17,-25 31,-42 43,-70 23,-56 31,-60 58,-140 24,-71 30,-54 41,-142 18,-136 14,-170 -6,-300 -12,-75 -26,-101 -55,-163 -25,-55 -56,-129 -97,-174 -18,-20 -23,-44 -45,-67l-47 -60c-9,-9 -6,-3 -18,-11 -9,-5 -8,-7 -16,-13 -20,-19 -42,-23 -63,-44 -19,-20 -41,-33 -64,-47 -14,-7 -23,-12 -36,-18l-18 -10c-69,-43 -86,-33 -133,-57 -79,-39 -256,-54 -332,-39z"/>
   <path class="fil0" d="M4977 4662l16 6c-30,4 -44,16 -68,30l-105 78c-5,4 -10,7 -15,10l-36 37c-19,20 -43,35 -57,59 -8,13 -3,5 -10,14 -5,6 -5,7 -11,14 -5,8 -5,7 -10,14 -25,40 -29,32 -35,57l-20 49c0,0 -3,-8 -13,24 -4,12 -1,5 -5,15l-8 11c0,0 -6,13 -6,13 -6,15 -15,47 -16,62l-8 0c-2,36 -7,13 -10,44 -2,16 0,35 -2,52 -9,69 -6,153 -4,224 1,33 11,37 15,68 5,43 4,29 15,72 5,17 17,28 23,44 22,54 51,104 85,153l116 131c23,22 48,46 77,63l40 20c3,2 5,3 8,5 1,0 11,6 12,7l45 23c76,36 49,18 103,38 29,11 -7,1 18,10 17,1 34,1 49,5 69,23 218,31 289,14 19,-4 10,-8 31,-12 100,-16 57,-12 110,-31 84,-30 34,4 119,-51l82 -54c66,-47 131,-115 174,-184 14,-23 32,-42 44,-67 7,-15 6,-23 15,-39 11,-18 13,-42 25,-58 1,-2 12,-14 12,-15 7,-14 4,-37 8,-52 22,-88 30,-199 22,-294 -2,-19 -2,-52 -8,-66l-14 -33c-3,-8 -2,-13 -3,-22 -2,-21 -2,-25 -10,-39 -8,-15 -8,-12 -16,-32 0,-1 -1,-2 -1,-3 -1,-1 -1,-2 -2,-4l-26 -66c-1,-1 -2,-2 -2,-2 -12,-15 -22,-50 -67,-113l-32 -41c-14,-13 -17,-8 -26,-22 -29,-40 -72,-73 -113,-101 0,0 -2,-1 -3,-1l-43 -25c-45,-26 -95,-54 -146,-68 -129,-35 -218,-52 -357,-36 -59,6 -109,16 -164,35l-11 4c-6,2 -14,5 -15,5 0,0 -1,1 -2,1l-53 20z"/>
   <path class="fil0" d="M5150 4636c0,0 -2,-8 6,-1 12,9 7,-4 4,9l-118 31c-1,1 -3,1 -4,2l-30 13c0,1 -1,2 -2,2l-27 13c-25,7 -58,17 -72,28 -8,7 -8,6 -15,11 -1,0 -2,1 -3,1l-31 27c-1,0 -2,1 -2,2l-12 9c-9,6 -1,1 -9,5 -14,9 -44,64 -62,83l-26 27c-1,1 -2,2 -3,2l-22 30c-6,8 -6,10 -11,18 -11,15 -16,33 -30,48l-27 50c-4,6 -5,8 -9,15l-38 112c-12,28 -4,-2 -9,18 -12,48 -17,136 -16,187l12 138c2,17 7,24 8,46l3 24c0,1 1,2 1,3 1,1 2,2 2,3 1,2 4,7 6,9 7,15 8,25 8,48l9 -14 0 34c-2,-2 -8,5 -3,-11 5,-18 -4,-4 11,-17 9,41 23,77 45,112 1,1 2,2 2,3 1,0 2,1 2,2l38 48c13,14 18,33 33,44l20 16c7,8 1,1 8,11l167 132c17,13 10,9 39,11 -3,9 7,33 -13,12l77 33c54,32 42,15 100,30 13,4 2,-2 15,5 0,1 2,3 2,3 0,0 0,1 0,1 0,0 0,1 0,1l82 0c9,12 131,5 151,5 57,0 88,-19 140,-20l-5 -9c16,-7 36,-14 58,-15l0 -10c19,0 24,-4 49,-4 3,-18 3,-10 17,-18l87 -49c1,-1 2,-1 3,-2 1,0 2,-1 3,-1 7,-6 2,-3 8,-10 4,-4 3,-5 11,-11 18,-13 33,-21 46,-39l14 -17c4,7 27,-12 36,-29l15 -20c1,-1 2,-2 2,-3l16 -13c7,-7 9,-12 12,-20l3 -7c0,-1 0,-2 1,-4 0,-1 1,-2 1,-3l71 -130c11,-16 16,-38 23,-58 0,-1 1,-2 1,-4 23,-61 20,-67 29,-124 0,-1 0,-2 0,-3l6 -30c25,-104 9,-220 -24,-326 -4,-13 -4,-16 -8,-26l-10 -19c0,-1 -1,-2 -1,-3 -1,-1 -1,-3 -2,-4 -8,-18 -12,-29 -21,-46l-3 -7c0,-1 -1,-2 -2,-3 -1,-3 -5,-11 -6,-13 -4,-8 -10,-16 -14,-24 -10,-17 -18,-30 -28,-46l-32 -39c-6,-8 -9,-12 -15,-19l-45 -51c-1,-1 -2,-2 -3,-2l-12 -8c-18,-14 -31,-33 -51,-45l-36 -27c-52,-37 -105,-63 -167,-84 -90,-31 -229,-51 -340,-39 -29,3 -50,9 -84,10z"/>
   <path class="fil0" d="M1794 2356c-8,69 -31,101 -31,217 1,40 0,78 5,117 5,39 14,76 19,115 -33,9 -25,24 -64,28 59,193 123,294 256,426 5,4 7,7 12,11 10,8 5,5 13,8 16,-2 17,-11 35,-23l57 -40c1,-1 2,-1 3,-2 0,-1 1,-2 2,-2 1,-1 2,-2 3,-2l349 -257c79,-60 51,-47 82,-73 36,-32 10,1 61,-55 9,-9 12,-11 21,-19l64 -52c32,-25 47,-51 104,-84l96 -59c17,-12 20,-20 46,-32 92,-40 27,5 147,-81l221 -162c1,0 2,-1 3,-2l36 -26c1,0 2,-1 3,-2l9 -6c0,-1 1,-2 2,-2l28 -21c27,-21 44,-27 47,-43 -1,-37 -85,-159 -106,-187 -32,-41 -112,-132 -153,-151l6 16c-29,2 -2,-5 -22,12 -10,8 -9,6 -18,12 -22,-10 -47,-32 -68,-45 -24,-15 -44,-28 -71,-41 -22,-12 -47,-24 -75,-36 -21,-8 -68,-17 -81,-33 -21,-2 -59,-14 -86,-19 -207,-39 -424,10 -596,116 -85,51 -168,129 -221,200 -36,47 -136,207 -138,279z"/>
   <path class="fil0" d="M5281 4980c-108,18 -181,49 -254,135 -54,66 -103,172 -87,294 15,116 73,197 137,250 63,53 175,105 292,88 342,-50 459,-462 203,-680 -63,-53 -175,-107 -291,-87z"/>
   <path class="fil0" d="M5024 5163c-82,133 -75,260 -4,384l27 -4c68,134 334,221 501,59 107,-105 140,-263 58,-409 -27,-49 -51,-65 -83,-97 -33,-11 -81,-63 -201,-69 18,-3 13,-6 19,-18 -110,-5 -184,33 -260,92 -14,11 -18,19 -27,31 -15,23 -19,27 -30,31z"/>
   <path class="fil0" d="M5291 5052c-163,21 -298,159 -278,344 16,158 162,299 344,277 169,-20 297,-165 277,-349 -16,-152 -164,-295 -343,-272z"/>
   <path class="fil0" d="M2136 3375c19,26 121,65 146,75 31,11 143,45 173,41l54 2c-16,-13 -55,-13 -90,-26 -20,-7 -16,-3 -16,-27 32,-8 35,-29 53,-59l22 -40c1,-1 2,-2 2,-3l109 -152c1,-1 2,-2 2,-3l17 -27c11,-18 14,-12 27,-27l49 -62c23,-21 14,-6 42,-40 7,-8 6,-8 14,-15 14,-11 35,-25 43,-39 8,-13 -9,-14 36,-24 19,-4 5,4 22,-11l71 -55c1,-1 2,-2 3,-2l28 -20c27,-20 88,-53 118,-62 30,-10 9,-13 63,-29 16,-5 7,-4 20,-9 21,-9 29,-1 51,-12 13,-6 6,-4 22,-8l172 -41c27,-9 6,-8 63,-18 17,-3 5,0 22,-9l4 75c11,-8 5,-4 13,-18l8 -12c-2,-22 5,-58 5,-87 2,-58 -3,-192 -22,-245l-10 -17c0,18 7,20 -8,35l-14 10c-13,9 -23,15 -37,26 -1,1 -4,3 -5,4 -1,0 -2,1 -3,2l-50 38c-56,42 -45,16 -75,40l-17 13c-24,13 -40,4 -69,14l-69 27c-15,6 -7,5 -23,11 -25,9 -22,4 -44,19 -21,14 -26,10 -47,21 -6,3 -14,9 -21,13l-148 79c-16,12 -21,13 -48,15 -24,39 -6,11 -34,34l-35 28 27 8c-43,12 -72,78 -123,114 -1,1 -5,3 -6,4l-65 66c0,1 -1,2 -2,3 0,0 -1,2 -2,2l-48 54c-19,27 -11,7 -48,58 -28,37 -38,55 -68,83 -19,17 -5,16 -36,41 -1,1 -2,2 -3,3l-165 120c-21,15 -20,25 -50,21z"/>
   <path class="fil0" d="M2004 3278c1,1 2,1 3,3l25 26c23,17 83,65 104,68 30,4 29,-6 50,-21l165 -120c1,-1 2,-2 3,-3 31,-25 17,-24 36,-41 30,-28 40,-46 68,-83 37,-51 29,-31 48,-58l48 -54c1,0 2,-2 2,-2 1,-1 2,-2 2,-3l65 -66c1,-1 5,-3 6,-4 51,-36 80,-102 123,-114l-27 -8 35 -28c28,-23 10,5 34,-34 27,-2 32,-3 48,-15l148 -79c7,-4 15,-10 21,-13 21,-11 26,-7 47,-21 22,-15 19,-10 44,-19 16,-6 8,-5 23,-11l69 -27c29,-10 45,-1 69,-14l17 -13c30,-24 19,2 75,-40l50 -38c1,-1 2,-2 3,-2 1,-1 4,-3 5,-4 14,-11 24,-17 37,-26l14 -10c15,-15 8,-17 8,-35 2,-22 -11,-51 -18,-72l-23 -55c-5,-8 -1,-3 -8,-9 -3,16 -20,22 -47,43l-28 21c-1,0 -2,1 -2,2l-9 6c-1,1 -2,2 -3,2l-36 26c-1,1 -2,2 -3,2l-221 162c-120,86 -55,41 -147,81 -26,12 -29,20 -46,32l-96 59c-57,33 -72,59 -104,84l-64 52c-9,8 -12,10 -21,19 -51,56 -25,23 -61,55 -31,26 -3,13 -82,73l-349 257c-1,0 -2,1 -3,2 -1,0 -2,1 -2,2 -1,1 -2,1 -3,2l-57 40c-18,12 -19,21 -35,23z"/>
   <path class="fil0" d="M2455 3491c36,35 287,5 330,-2 20,-4 78,-16 94,-31 -35,4 -75,23 -109,20l-26 10c-40,6 -124,1 -162,0 1,-24 4,-16 23,-50 2,-4 5,-8 5,-9l127 -198c13,-19 6,-18 19,-29 7,-7 1,-1 8,-6 1,-1 2,-2 3,-2 22,-17 15,-24 35,-43 88,-78 23,-47 89,-96l44 -33c11,-5 35,-3 100,-45 39,-24 41,-24 82,-40l86 -31c59,-13 19,-21 72,-24 30,-2 17,-5 39,-8l68 -10c13,-7 3,-15 31,-13 19,2 19,7 34,-3 -4,29 -14,67 -25,95 -7,20 -21,67 -39,80 -8,44 -64,103 -80,142 60,-31 198,-326 196,-447l-8 12c-8,14 -2,10 -13,18l-4 -75c-17,9 -5,6 -22,9 -57,10 -36,9 -63,18l-172 41c-16,4 -9,2 -22,8 -22,11 -30,3 -51,12 -13,5 -4,4 -20,9 -54,16 -33,19 -63,29 -30,9 -91,42 -118,62l-28 20c-1,0 -2,1 -3,2l-71 55c-17,15 -3,7 -22,11 -45,10 -28,11 -36,24 -8,14 -29,28 -43,39 -8,7 -7,7 -14,15 -28,34 -19,19 -42,40l-49 62c-13,15 -16,9 -27,27l-17 27c0,1 -1,2 -2,3l-109 152c0,1 -1,2 -2,3l-22 40c-18,30 -21,51 -53,59 0,24 -4,20 16,27 35,13 74,13 90,26l-54 -2z"/>
   <path class="fil0" d="M1941 2788c19,-6 11,-5 34,-22l68 -49c27,-25 24,-15 47,-35l476 -348c2,-2 5,-5 8,-7l184 -135c5,-4 1,-1 9,-6 0,-1 2,-2 2,-2 1,-1 2,-2 3,-2l117 -82c-25,-23 -161,-9 -189,-5 -164,20 -316,90 -435,185 -78,62 -143,131 -197,215 -40,62 -119,207 -127,293z"/>
   <path class="fil0" d="M3391 2013l25 45c173,266 212,618 90,909 -45,107 -103,196 -175,282 -66,79 -163,149 -252,202 -346,205 -853,148 -1139,-124 -69,-65 -192,-206 -230,-306 -9,-24 -3,-29 -18,-53 -13,-21 -18,-31 -24,-55 -6,-21 -12,-24 -21,-56 -45,-159 -41,-237 -37,-412l-38 33c0,1 -1,2 -2,3 -1,1 -2,2 -2,3 -1,0 -2,1 -3,2l-23 21c-9,5 1,0 -12,6l1 -35c-21,44 -10,174 -5,230 7,68 22,140 42,205 38,122 105,250 166,325 12,-1 4,4 29,-17l24 -24c27,14 22,13 37,32l20 19c107,101 103,104 230,187l44 30c0,1 2,2 2,3 25,5 42,22 63,31 201,86 388,107 607,74l170 -52c146,-69 219,-102 349,-235 126,-129 209,-283 252,-456 31,-128 32,-234 17,-368 -2,-21 -8,-69 -13,-90 0,-1 0,-2 -1,-3 0,-1 -1,-2 -1,-3 0,-2 -3,-8 -3,-11l-28 -99c-8,-35 -5,-6 -17,-35 -6,-14 -8,-24 -13,-36l-30 -72c-16,-37 -39,-22 5,-60 19,-16 11,-17 28,-25 -7,-27 -94,-134 -118,-159 -24,-24 -44,-46 -70,-70 -9,-9 -69,-54 -71,-64 -6,27 -8,18 -28,35l-21 23c13,13 2,0 12,15 13,20 10,20 27,31 1,1 2,2 3,2 1,1 2,2 3,2 1,1 2,2 3,2l29 29c30,36 38,36 52,51l35 46c1,1 6,7 7,8l13 16c12,13 9,2 10,18z"/>
   <path class="fil0" d="M2770 3478l-3 -2c1,-25 5,-25 18,-52 1,-2 4,-10 4,-10 17,-45 -7,-4 14,-34l26 -52c27,-56 1,-11 30,-48l133 -152c30,-26 -1,-8 27,-26l29 -20c26,-17 34,-15 65,-31l172 -32c16,-1 18,-2 28,-3l56 -1c16,-3 1,1 12,-5l2 13c18,-13 32,-60 39,-80 11,-28 21,-66 25,-95 -15,10 -15,5 -34,3 -28,-2 -18,6 -31,13l-68 10c-22,3 -9,6 -39,8 -53,3 -13,11 -72,24l-86 31c-41,16 -43,16 -82,40 -65,42 -89,40 -100,45l-44 33c-66,49 -1,18 -89,96 -20,19 -13,26 -35,43 -1,0 -2,1 -3,2 -7,5 -1,-1 -8,6 -13,11 -6,10 -19,29l-127 198c0,1 -3,5 -5,9 -19,34 -22,26 -23,50 38,1 122,6 162,0l26 -10z"/>
   <path class="fil0" d="M1717 2403c25,6 7,4 24,-7 1,0 15,-12 17,-13 13,-10 23,-18 36,-27 2,-72 102,-232 138,-279 53,-71 136,-149 221,-200 172,-106 389,-155 596,-116 27,5 65,17 86,19 18,1 32,-10 46,-23 10,-10 7,2 8,-14 -33,-19 -142,-37 -190,-43 -203,-28 -423,33 -584,134 -97,61 -186,144 -248,232 -55,77 -133,217 -150,337z"/>
   <path class="fil0" d="M3391 2013c-1,-16 2,-5 -10,-18l-13 -16c-1,-1 -6,-7 -7,-8l-35 -46c-14,-15 -22,-15 -52,-51l-29 -29c-1,0 -2,-1 -3,-2 -1,0 -2,-1 -3,-2 -1,0 -2,-1 -3,-2 -17,-11 -14,-11 -27,-31 -10,-15 1,-2 -12,-15l21 -23c20,-17 22,-8 28,-35 -40,-17 -130,-103 -307,-159 -76,-25 -341,-82 -407,-49l106 -1c-10,21 -50,54 -68,66l57 13c57,8 74,2 141,16l86 28c21,7 64,10 112,40l28 15c18,8 8,2 29,9 19,5 12,5 26,13l22 14c23,18 12,-3 52,29 8,7 16,10 24,14 30,17 59,42 89,68 15,14 28,23 41,36 5,5 6,6 10,11l104 115z"/>
   <path class="fil0" d="M5082 5495c12,-16 12,-46 20,-73 77,-252 308,-224 333,-238 19,-12 34,-37 55,-42 -9,-14 -17,-18 -33,-27 -109,-61 -224,-44 -318,30 -36,29 -77,92 -89,153 -18,86 4,137 32,197z"/>
   <path class="fil0" d="M5523 5096c32,32 56,48 83,97 82,146 49,304 -58,409 -167,162 -433,75 -501,-59l-27 4c-71,-124 -78,-251 4,-384 0,0 -1,1 -2,2l-25 44c-68,142 -36,297 70,407l41 37c128,91 279,97 413,14 10,-7 14,-10 22,-17 8,-6 15,-9 23,-16l37 -40c21,-30 41,-56 57,-97 104,-261 -117,-531 -388,-493 63,-13 148,4 204,33 20,10 35,22 54,30 -1,1 -2,2 -2,4 -2,13 -12,6 -5,25z"/>
   <path class="fil0" d="M3586 3518c-22,8 -19,2 -36,18 -63,63 -41,144 16,175 87,50 189,-13 154,-124 -16,-49 -70,-94 -134,-69z"/>
   <path class="fil0" d="M3599 1476c-20,5 -46,8 -67,41 -60,96 30,190 107,169 86,-23 123,-139 50,-196 -23,-19 -55,-22 -90,-14z"/>
   <path class="fil0" d="M2564 1052c-13,7 -33,7 -57,50 -13,21 -19,61 -9,91 30,83 149,102 196,14 21,-40 14,-84 -12,-120l-12 -12c-27,-23 -72,-42 -106,-23z"/>
   <path class="fil0" d="M1124 2500c-61,23 -89,65 -70,133 36,127 246,77 208,-69 -12,-45 -80,-86 -138,-64z"/>
   <path class="fil0" d="M2573 3939c-96,34 -105,146 -33,193 26,17 51,23 88,13 136,-35 71,-251 -55,-206z"/>
   <path class="fil0" d="M4009 2506c-125,51 -64,222 63,187 129,-35 61,-236 -63,-187z"/>
   <path class="fil0" d="M4321 5964l-145 248c-11,18 -44,68 -48,87l260 262c95,-52 236,-144 335,-199 12,-14 16,-16 39,-16 -28,-27 -42,-3 -97,29l-256 149c-6,-17 -243,-248 -247,-250 4,-12 16,-31 24,-44l152 -255c13,-22 14,-25 10,-37 -4,-9 -3,-5 -7,-10 -2,21 -6,26 -20,36z"/>
   <path class="fil0" d="M5921 4361l-27 19c10,15 31,0 46,-9l295 -170c2,4 233,241 250,247 -3,18 -180,310 -184,323 -3,8 -5,1 -2,15 7,28 -2,4 9,14 3,-14 -1,-7 6,-21 8,-13 7,-9 13,-13l96 -169c18,-29 31,-52 48,-83 16,-30 34,-56 50,-86l-261 -262 -339 195z"/>
   <path class="fil0" d="M5886 6348c19,1 25,7 35,18 28,16 53,31 83,47 82,46 174,104 255,147l263 -260 -195 -340c-14,-9 -18,-15 -18,-36 -10,9 -3,-9 -10,13 -6,16 30,67 38,80l149 258 -251 250 -249 -143c-24,-14 -62,-42 -89,-46 -10,9 -6,6 -11,12z"/>
   <path class="fil0" d="M5040 4230l-7 36c25,-7 30,-65 36,-88 12,-45 72,-271 80,-283l350 0 91 330c6,24 1,36 25,42l-7 -37c-1,-19 -17,-69 -23,-92l-51 -191c-7,-26 -16,-75 -26,-95l-368 0c-11,24 -17,61 -26,90l-74 288z"/>
   <path class="fil0" d="M1717 2403c-17,26 -25,165 -24,213 2,87 19,142 30,217 39,-4 31,-19 64,-28 -5,-39 -14,-76 -19,-115 -5,-39 -4,-77 -5,-117 0,-116 23,-148 31,-217 -13,9 -23,17 -36,27 -2,1 -16,13 -17,13 -17,11 1,13 -24,7z"/>
   <path class="fil0" d="M1555 3526c-23,6 -14,-1 -32,13 -92,68 -20,200 78,175 49,-12 84,-53 72,-119 -9,-48 -60,-85 -118,-69z"/>
   <path class="fil0" d="M4321 4761c9,5 5,-3 14,13 6,9 5,10 5,22 25,-18 4,-38 -26,-88l-153 -257c12,-8 46,-46 60,-60 23,-23 42,-43 65,-66 22,-22 41,-40 63,-62 14,-14 56,-53 62,-62l298 175c17,10 31,22 47,3 -10,0 -13,-1 -21,-5 -15,-9 -8,-6 -12,-13 -28,-17 -55,-30 -83,-47 -29,-18 -54,-32 -82,-49l-169 -98 -263 260 195 334z"/>
   <path class="fil0" d="M4191 5083c-22,0 -28,5 -48,10l-330 86 0 369c14,6 28,7 46,11 17,5 30,9 46,13l286 70 35 8 -1 -15c-42,-16 -136,-36 -186,-48 -32,-8 -168,-39 -183,-49l0 -350c17,-12 153,-42 188,-52l142 -36c24,-6 35,-4 42,-25l-37 8z"/>
   <path class="fil0" d="M6419 5656c4,-1 15,-4 18,-5 20,-2 5,-4 17,3 26,-15 147,-44 183,-53 36,-10 168,-49 194,-49l0 -377c-20,-1 -360,-93 -378,-102 -10,6 -19,1 -33,-3 -2,26 64,34 85,39l286 75 0 356 -286 77c-57,16 -85,11 -86,39z"/>
   <path class="fil0" d="M5034 6493c18,15 23,65 29,87 8,32 15,64 24,96l25 96c5,22 23,77 23,98l378 0c0,-20 25,-116 32,-142 5,-18 9,-30 14,-50 8,-34 15,-62 24,-96 11,-47 13,-74 32,-89 -15,-5 -8,3 -9,-14 0,0 4,-19 4,-20 -23,7 -11,-3 -20,20 -1,4 -5,18 -6,23 -4,17 -7,30 -11,46 -17,59 -61,258 -74,283l-354 0 -93 -372 -19 -1c3,8 6,13 6,20 0,15 7,8 -5,15z"/>
   <path class="fil0" d="M1734 3238c6,20 36,51 49,66l57 59c39,36 80,72 127,105 8,-3 1,0 8,-5l13 -11c1,-1 2,-2 3,-2 25,-23 24,-34 65,-11 20,11 35,27 64,29 0,-1 -2,-2 -2,-3l-44 -30c-127,-83 -123,-86 -230,-187l-20 -19c-15,-19 -10,-18 -37,-32l-24 24c-25,21 -17,16 -29,17z"/>
   <path class="fil0" d="M1129 2513c-30,14 -37,13 -53,41 -43,75 37,168 120,130 113,-52 32,-217 -67,-171z"/>
   <path class="fil0" d="M2561 3961c-50,29 -64,76 -41,122 54,107 210,25 162,-79 -16,-35 -71,-73 -121,-43z"/>
   <path class="fil0" d="M3594 1497c-23,12 -36,15 -50,36 -40,61 16,156 102,131 115,-33 43,-213 -52,-167z"/>
   <path class="fil0" d="M1549 3545c-45,23 -65,62 -45,107 15,33 59,63 107,43 101,-42 33,-199 -62,-150z"/>
   <path class="fil0" d="M1139 2524c-113,29 -56,180 39,154 103,-28 64,-181 -39,-154z"/>
   <path class="fil0" d="M2835 1780c13,16 60,25 81,33 28,12 53,24 75,36 27,13 47,26 71,41 21,13 46,35 68,45 9,-6 8,-4 18,-12 20,-17 -7,-10 22,-12l-6 -16c-17,-33 -211,-141 -275,-152 -1,16 2,4 -8,14 -14,13 -28,24 -46,23z"/>
   <path class="fil0" d="M4069 4317l157 -149c13,-13 16,-21 29,-34l61 -64c8,-14 17,-24 24,-39 -53,-2 -36,-13 -84,32 -9,8 -10,13 -17,22 -10,13 -29,26 -40,37 -14,14 -22,27 -36,41 -14,14 -28,23 -41,37l-25 28c-20,21 -22,15 -35,28 -50,46 -30,51 -27,81l34 -20z"/>
   <path class="fil0" d="M2575 3970c-100,38 -42,177 52,143 85,-30 45,-180 -52,-143z"/>
   <path class="fil0" d="M1124 885c-11,21 -14,15 -30,30l-37 35c-35,32 -85,76 -112,111 -9,12 -49,57 -60,63 -10,20 -19,23 -22,43 34,2 35,8 56,-10 20,-18 20,-14 36,-37 11,-17 118,-115 139,-142 22,-31 63,-28 64,-86 -7,-5 -5,4 -5,-20 -24,6 -12,2 -29,13z"/>
   <path class="fil0" d="M1849 4734c20,1 23,5 39,11 88,32 264,67 287,76l29 0 0 -39c-54,-23 -124,-29 -186,-48 -46,-14 -131,-43 -179,-49 -10,13 -16,13 -24,31l34 18z"/>
   <path class="fil0" d="M883 4070l160 168c19,17 73,61 81,75 11,10 5,6 19,12 1,-1 3,-4 3,-3 1,1 3,-3 3,-4l14 -30c-47,-61 -51,-39 -74,-72 -23,-31 -45,-42 -69,-71 -41,-49 -25,-13 -69,-72l-36 -37c-19,-18 -27,-7 -56,-5 7,15 12,26 24,39z"/>
   <path class="fil0" d="M4312 1124l-238 -238c-18,-8 -20,-19 -43,-23 -2,40 -9,51 54,96 17,12 21,25 37,40l117 115c29,39 5,11 38,40 26,24 45,9 51,6 1,-1 3,-1 4,-2 -7,-20 -12,-18 -20,-34z"/>
   <path class="fil0" d="M465 1849c-1,22 -17,56 -24,79l-54 208c-3,13 -4,34 -8,44l-4 37 37 -2c22,-31 34,-137 48,-182 13,-41 47,-141 52,-182 -1,0 -3,-2 -3,-1 -1,0 -2,-2 -3,-2l-26 -17 -10 10c-4,4 -2,2 -5,8z"/>
   <path class="fil0" d="M3348 465c-31,-5 -54,-16 -82,-25l-161 -42c-13,-3 -75,-16 -82,-19l-41 -3 2 36c17,12 244,64 315,88 22,8 76,22 65,-20 -3,-11 15,0 -16,-15z"/>
   <path class="fil0" d="M3013 4822c51,-16 158,-34 253,-64 24,-7 58,-23 83,-24 11,-5 4,-1 9,-5 1,-1 5,-4 6,-6 0,-2 2,-3 3,-4 -8,-20 -9,-13 -19,-29 -49,1 -157,44 -209,56 -218,49 -136,24 -173,78l47 -2z"/>
   <path class="fil0" d="M378 3023l21 86c4,25 11,56 19,82l47 159 11 14c1,1 2,2 4,3 13,-5 9,-3 18,-10l8 -8c1,-1 2,-2 3,-3 0,-1 2,-2 3,-3 -8,-45 -35,-119 -49,-166 -16,-54 -24,-125 -42,-173l-17 -5c-11,-3 -11,-3 -26,-5l0 29z"/>
   <path class="fil0" d="M4733 3351l85 -328 5 -41 -40 3c-25,102 -51,212 -84,311 -2,5 -13,44 -14,53 0,18 -2,11 9,23l20 15 19 -36z"/>
   <path class="fil0" d="M4820 2175l-28 -121c-10,-48 -55,-182 -59,-203 -8,-18 1,-18 -23,-12 -12,3 -10,6 -17,15 -1,1 -2,3 -3,3 -1,1 -2,2 -3,4 15,60 36,122 53,180 9,30 15,65 22,94 15,56 -2,69 58,69l0 -29z"/>
   <path class="fil0" d="M1851 465c-27,13 -12,0 -19,20 2,44 73,13 86,9 30,-9 60,-18 93,-27 54,-16 151,-31 193,-51l0 -38 -29 0 -324 87z"/>
   <path class="fil0" d="M1559 1515c-21,6 -29,5 -38,26 -7,15 -10,42 -5,62 20,77 169,48 131,-48 -7,-17 -14,-29 -30,-38l-42 -7c-13,2 -16,5 -16,5z"/>
   <path class="fil0" d="M3592 1518c-90,48 -20,160 56,124 83,-39 20,-164 -56,-124z"/>
   <path class="fil0" d="M1560 3556c-31,11 -56,37 -42,86 9,32 45,52 88,38 78,-27 38,-155 -46,-124z"/>
   <path class="fil0" d="M6419 5656c-31,108 -63,180 -110,268 0,21 4,27 18,36 42,-70 75,-141 101,-219 9,-27 22,-58 26,-87 -12,-7 3,-5 -17,-3 -3,1 -14,4 -18,5z"/>
   <path class="fil0" d="M4723 6362c15,18 115,63 143,75 39,18 124,50 168,56 12,-7 5,0 5,-15 0,-7 -3,-12 -6,-20 -51,-6 -245,-84 -271,-112 -23,0 -27,2 -39,16z"/>
   <path class="fil0" d="M6308 4800c48,82 83,169 112,270 14,4 23,9 33,3 -8,-69 -84,-245 -126,-307 -6,4 -5,0 -13,13 -7,14 -3,7 -6,21z"/>
   <path class="fil0" d="M4321 5964c14,-10 18,-15 20,-36 -37,-54 -101,-204 -115,-278l-35 -8c3,54 62,190 90,246 14,28 26,51 40,76z"/>
   <path class="fil0" d="M5615 4267c45,10 102,30 146,49 22,9 46,20 66,31 17,8 52,29 67,33l27 -19c-55,-43 -230,-115 -313,-131l7 37z"/>
   <path class="fil0" d="M4191 5083l37 -8c6,-78 82,-215 112,-279 0,-12 1,-13 -5,-22 -9,-16 -5,-8 -14,-13l-75 149c-12,29 -20,51 -29,82 -10,31 -24,57 -26,91z"/>
   <path class="fil0" d="M4723 4361c4,7 -3,4 12,13 8,4 11,5 21,5 40,-17 84,-44 131,-64 45,-19 101,-41 146,-49l7 -36c-49,10 -123,37 -168,56 -83,34 -91,47 -149,75z"/>
   <path class="fil0" d="M5610 6459c0,1 -4,20 -4,20 1,17 -6,9 9,14 31,-4 131,-40 161,-52l145 -75c-10,-11 -16,-17 -35,-18 -45,25 -221,110 -276,111z"/>
   <line class="fil0" x1="3665" y1="3549" x2="3665" y2= "3549" />
   <line class="fil0" x1="3983" y1="2549" x2="3983" y2= "2549" />
   <line class="fil0" x1="1666" y1="1532" x2="1666" y2= "1532" />
   <line class="fil0" x1="1666" y1="1532" x2="1666" y2= "1532" />
   <line class="fil0" x1="2528" y1="1118" x2="2528" y2= "1118" />
   <line class="fil0" x1="3983" y1="2549" x2="3983" y2= "2549" />
   <line class="fil0" x1="2528" y1="1118" x2="2528" y2= "1118" />
   <line class="fil0" x1="3665" y1="3549" x2="3665" y2= "3549" />
  </g>
 </g>
</svg>
